<svg width="26" height="26" viewBox="0 0 26 26" fill="none" xmlns="http://www.w3.org/2000/svg">
<path d="M16.767 13.9644L18.4082 23.2009C18.4266 23.3096 18.4113 23.4214 18.3645 23.5213C18.3176 23.6211 18.2414 23.7043 18.146 23.7596C18.0506 23.815 17.9405 23.8399 17.8306 23.831C17.7206 23.8222 17.616 23.78 17.5307 23.71L13.6524 20.7991C13.4652 20.6592 13.2377 20.5837 13.004 20.5837C12.7703 20.5837 12.5429 20.6592 12.3556 20.7991L8.4708 23.7089C8.38557 23.7787 8.28107 23.8209 8.17126 23.8298C8.06144 23.8387 7.95153 23.8138 7.85619 23.7586C7.76084 23.7034 7.6846 23.6205 7.63763 23.5208C7.59066 23.4211 7.5752 23.3095 7.5933 23.2009L9.23347 13.9644" stroke="#148614" stroke-width="2" stroke-linecap="round" stroke-linejoin="round"/>
<path d="M13 15.1665C16.5899 15.1665 19.5 12.2564 19.5 8.6665C19.5 5.07665 16.5899 2.1665 13 2.1665C9.41015 2.1665 6.5 5.07665 6.5 8.6665C6.5 12.2564 9.41015 15.1665 13 15.1665Z" stroke="#148614" stroke-width="2" stroke-linecap="round" stroke-linejoin="round"/>
</svg>
