<svg width="26" height="26" viewBox="0 0 26 26" fill="none" xmlns="http://www.w3.org/2000/svg">
<path d="M23.8327 18.4167C23.8327 18.9913 23.6044 19.5424 23.1981 19.9487C22.7917 20.3551 22.2406 20.5833 21.666 20.5833H7.39635C6.82176 20.5835 6.27075 20.8118 5.86452 21.2182L3.47902 23.6037C3.37145 23.7112 3.2344 23.7845 3.08521 23.8141C2.93602 23.8438 2.78138 23.8286 2.64085 23.7704C2.50031 23.7121 2.38019 23.6136 2.29568 23.4871C2.21116 23.3606 2.16604 23.2119 2.16602 23.0598V5.41667C2.16602 4.84203 2.39429 4.29093 2.80062 3.8846C3.20695 3.47827 3.75805 3.25 4.33268 3.25H21.666C22.2406 3.25 22.7917 3.47827 23.1981 3.8846C23.6044 4.29093 23.8327 4.84203 23.8327 5.41667V18.4167Z" stroke="#010163" stroke-width="2" stroke-linecap="round" stroke-linejoin="round"/>
</svg>
