<svg width="26" height="26" viewBox="0 0 26 26" fill="none" xmlns="http://www.w3.org/2000/svg">
<path d="M12.9993 23.8332C18.9824 23.8332 23.8327 18.9829 23.8327 12.9998C23.8327 7.01675 18.9824 2.1665 12.9993 2.1665C7.01626 2.1665 2.16602 7.01675 2.16602 12.9998C2.16602 18.9829 7.01626 23.8332 12.9993 23.8332Z" stroke="#148614" stroke-width="2" stroke-linecap="round" stroke-linejoin="round"/>
<path d="M13 19.5C16.5899 19.5 19.5 16.5899 19.5 13C19.5 9.41015 16.5899 6.5 13 6.5C9.41015 6.5 6.5 9.41015 6.5 13C6.5 16.5899 9.41015 19.5 13 19.5Z" stroke="#148614" stroke-width="2" stroke-linecap="round" stroke-linejoin="round"/>
<path d="M13.0007 15.1668C14.1973 15.1668 15.1673 14.1968 15.1673 13.0002C15.1673 11.8035 14.1973 10.8335 13.0007 10.8335C11.804 10.8335 10.834 11.8035 10.834 13.0002C10.834 14.1968 11.804 15.1668 13.0007 15.1668Z" stroke="#148614" stroke-width="2" stroke-linecap="round" stroke-linejoin="round"/>
</svg>
