<?xml version="1.0" encoding="UTF-8"?>
<svg version="1.1" xmlns="http://www.w3.org/2000/svg" width="512" height="512">
<path d="M0 0 C1.87569855 1.08697964 3.75204343 2.17284443 5.62890625 3.2578125 C9.7458308 5.64323634 13.85052963 8.04824009 17.94921875 10.46484375 C21.77923528 12.71725678 25.62910923 14.92008796 29.51953125 17.06640625 C30.37385742 17.54295654 31.22818359 18.01950684 32.10839844 18.51049805 C33.68156313 19.38519139 35.26117888 20.24843953 36.84863281 21.09692383 C43.14583839 24.62572718 47.95095428 29.20441391 51.40234375 35.59765625 C54.31946777 47.32335086 50.85966118 56.09427619 45 66 C43.98055857 67.76753054 42.96242827 69.53581765 41.9453125 71.3046875 C39.58515316 75.38882802 37.2037991 79.45975708 34.80859375 83.5234375 C31.02101042 89.9517352 27.28563892 96.40921373 23.5625 102.875 C22.94052734 103.95426758 22.31855469 105.03353516 21.67773438 106.14550781 C20.4153306 108.33614966 19.15312377 110.526905 17.89111328 112.71777344 C14.76319852 118.14659942 11.63141552 123.57319281 8.5 129 C7.24998121 131.16665583 5.99998122 133.3333225 4.75 135.5 C-7.75 157.16666667 -20.25 178.83333333 -32.75 200.5 C-33.36883057 201.57266113 -33.98766113 202.64532227 -34.62524414 203.75048828 C-35.87435518 205.91557071 -37.12354129 208.08060982 -38.37280273 210.24560547 C-41.51202309 215.68615706 -44.64990563 221.12747216 -47.78515625 226.5703125 C-54.10510203 237.53917031 -60.44011887 248.49900385 -66.8125 259.4375 C-67.40554932 260.45666504 -67.99859863 261.47583008 -68.60961914 262.52587891 C-69.15739014 263.4647998 -69.70516113 264.4037207 -70.26953125 265.37109375 C-70.75010986 266.19536865 -71.23068848 267.01964355 -71.72583008 267.86889648 C-72.76699718 269.61029285 -73.87456125 271.31184188 -75 273 C-75.19655059 275.54878184 -75.27658336 277.98867536 -75.26501465 280.5378418 C-75.26939592 281.31260235 -75.27377719 282.0873629 -75.27829123 282.88560104 C-75.2906446 285.49019847 -75.28880082 288.09459536 -75.28710938 290.69921875 C-75.29313179 292.56356608 -75.30005558 294.42791068 -75.30781555 296.29225159 C-75.32272542 300.31264038 -75.33145913 304.33297932 -75.33552551 308.35339355 C-75.34223387 314.71644054 -75.363985 321.07938111 -75.38806152 327.44238281 C-75.43708098 340.9615636 -75.46933302 354.48076703 -75.5 368 C-75.53309359 382.56728276 -75.56914091 397.13452401 -75.62413073 411.70174313 C-75.64741555 418.0202056 -75.66120486 424.33859479 -75.66762543 430.65709591 C-75.67358854 434.60076697 -75.68770708 438.54437919 -75.70396996 442.48801994 C-75.70981768 444.30880908 -75.71232409 446.1296127 -75.71113014 447.95041084 C-75.69866531 474.55461198 -75.69866531 474.55461198 -84 485 C-91.24887662 491.96950815 -99.72837401 495.1188673 -109.72542095 495.13142776 C-110.87524635 495.13526891 -112.02507175 495.13911005 -113.20974034 495.1430676 C-115.09784522 495.14176787 -115.09784522 495.14176787 -117.02409363 495.14044189 C-118.37834216 495.14302665 -119.73258992 495.14604011 -121.08683664 495.1494453 C-124.80735538 495.15750566 -128.52785482 495.15930433 -132.24838126 495.16004276 C-136.26147899 495.161895 -140.27456674 495.1694432 -144.28765869 495.17617798 C-153.06254621 495.18975504 -161.83742916 495.19578506 -170.61232543 495.20018864 C-176.09251168 495.20295215 -181.57269618 495.20718971 -187.05288124 495.21169281 C-202.22903807 495.22388472 -217.40519348 495.23418415 -232.58135509 495.2375679 C-233.55250797 495.23778747 -234.52366085 495.23800703 -235.5242426 495.23823325 C-236.49770539 495.23845153 -237.47116819 495.23866981 -238.47412986 495.2388947 C-240.44670181 495.23933817 -242.41927375 495.23978473 -244.3918457 495.24023438 C-245.37030735 495.2404558 -246.348769 495.24067723 -247.356881 495.24090537 C-263.20898485 495.2448528 -279.06104272 495.2623055 -294.91312882 495.2855939 C-311.19229587 495.30931647 -327.47143986 495.32177017 -343.75062448 495.32293582 C-352.88913084 495.32385208 -362.02757728 495.32959197 -371.16606712 495.34775543 C-378.94820461 495.36316864 -386.73026367 495.36826968 -394.51241352 495.36001733 C-398.48124347 495.35611513 -402.44991553 495.35701931 -406.41872597 495.37107468 C-410.05645651 495.38383945 -413.69391093 495.3825937 -417.33164123 495.37048396 C-419.26161944 495.36761083 -421.19160253 495.37944322 -423.12154263 495.39190602 C-434.03300168 495.33007179 -443.63526775 493.38911338 -452 486 C-457.78304452 479.09006672 -460.24754606 472.55712121 -460.25726891 463.51170731 C-460.26077498 462.77502603 -460.26428105 462.03834475 -460.26789337 461.27933979 C-460.27720181 458.8092997 -460.27228552 456.33949567 -460.26742554 453.8694458 C-460.27116208 452.08122908 -460.27576362 450.293014 -460.28115618 448.50480151 C-460.29340114 443.58936201 -460.29312395 438.67399048 -460.29076743 433.7585392 C-460.29035964 428.45777968 -460.30139481 423.15704206 -460.31088257 417.85629272 C-460.32750186 407.4703695 -460.33299254 397.08446897 -460.33410732 386.69853356 C-460.33505738 378.25672935 -460.33916555 369.81493264 -460.34550858 361.3731308 C-460.3631237 337.44274519 -460.37234705 313.51237752 -460.37084763 289.58198538 C-460.37076772 288.29164896 -460.3706878 287.00131253 -460.37060547 285.671875 C-460.37052371 284.3799643 -460.37044195 283.0880536 -460.37035771 281.7569941 C-460.36954478 260.8190211 -460.38868344 239.88112003 -460.4168822 218.94316784 C-460.44560336 197.44782858 -460.45942291 175.95252441 -460.45769465 154.45716548 C-460.45703047 142.38772593 -460.46253492 130.31836179 -460.48405075 118.24893951 C-460.50225243 107.97267459 -460.50661818 97.69651925 -460.4930319 87.4202452 C-460.48649713 82.17749807 -460.4864036 76.93496123 -460.5037384 71.69223404 C-460.51945144 66.89059064 -460.51662343 62.08932459 -460.49917014 57.28769049 C-460.49609636 55.55284304 -460.49974686 53.81796755 -460.51089029 52.08315316 C-460.57281453 41.75689005 -460.25927974 32.84734772 -453.95703125 24.1953125 C-442.66607077 13.29511386 -431.95858591 12.84720217 -416.84965515 12.86628723 C-415.53159356 12.86402167 -414.21353198 12.86175612 -412.85552913 12.85942191 C-409.21212601 12.85332597 -405.56874591 12.85343489 -401.92533886 12.85461628 C-397.98998675 12.85482085 -394.05464191 12.84929624 -390.11929321 12.84455872 C-382.4150507 12.83626387 -374.71081584 12.83350441 -367.00656923 12.83294634 C-360.74255091 12.83247065 -354.47853511 12.83041329 -348.21451759 12.82724571 C-330.44348212 12.81844256 -312.67245268 12.81382584 -294.90141501 12.81457619 C-293.46533543 12.81463612 -293.46533543 12.81463612 -292.00024414 12.81469727 C-291.041685 12.81473815 -290.08312585 12.81477903 -289.09551946 12.81482115 C-273.56115252 12.81522759 -258.02680983 12.80565761 -242.4924499 12.7915589 C-226.53071663 12.77718694 -210.56899518 12.77028916 -194.60725528 12.77115268 C-185.65042364 12.77148435 -176.69361742 12.76875031 -167.73679161 12.75797462 C-160.11103879 12.74885887 -152.48532292 12.74670323 -144.85956701 12.75348405 C-140.97163622 12.75674373 -137.08377628 12.7568259 -133.19585228 12.7481308 C-129.63102129 12.74024051 -126.06631702 12.74172287 -122.50148902 12.75041493 C-120.6131601 12.75266432 -118.72482716 12.7451412 -116.8365137 12.73717529 C-104.33487666 12.78751434 -94.93516469 14.03253271 -85.3125 22.3125 C-77.79504571 31.04900093 -76.36266329 39.03719147 -75.453125 50.359375 C-75.32405762 51.95217285 -75.32405762 51.95217285 -75.19238281 53.57714844 C-75.12889648 54.37668945 -75.06541016 55.17623047 -75 56 C-72.99751834 52.5847827 -70.99854254 49.1675237 -69 45.75 C-68.06679932 44.1575647 -68.06679932 44.1575647 -67.11474609 42.53295898 C-63.61738192 36.54783726 -60.16812608 30.54100906 -56.7890625 24.48828125 C-55.74115262 22.6206486 -54.69261497 20.75336937 -53.64404297 18.8861084 C-52.97331212 17.68581514 -52.30653161 16.48330444 -51.64404297 15.27844238 C-40.74654428 -4.53456203 -40.74654428 -4.53456203 -31 -8 C-18.89182821 -10.85250176 -10.19068993 -6.00549288 0 0 Z M-434 40 C-436.25114292 43.97496411 -436.25052695 47.62771962 -436.25168228 52.1293335 C-436.25458916 52.83934494 -436.25749604 53.54935637 -436.26049101 54.28088331 C-436.26780485 56.66618265 -436.26084126 59.05122587 -436.25396729 61.43652344 C-436.25627117 63.16144314 -436.25944721 64.88636187 -436.26342177 66.61127853 C-436.27178834 71.35621318 -436.26763605 76.10106761 -436.26144934 80.84600258 C-436.25693347 85.9612648 -436.26390431 91.076513 -436.26940918 96.19177246 C-436.27831408 106.21454052 -436.27637629 116.23727867 -436.2705839 126.26004791 C-436.26607172 134.4039586 -436.26545258 142.54786089 -436.26763153 150.69177246 C-436.267938 151.8497524 -436.26824446 153.00773233 -436.26856022 154.20080256 C-436.26919965 156.55303224 -436.26984808 158.90526192 -436.2705054 161.25749159 C-436.2762119 183.32732606 -436.26964577 205.39714394 -436.25890467 227.46697569 C-436.24996887 246.41419002 -436.25152082 265.36137986 -436.26074219 284.30859375 C-436.27143916 306.29811125 -436.27566255 328.2876142 -436.26951766 350.27713394 C-436.26888054 352.62083181 -436.2682518 354.96452967 -436.26763153 357.30822754 C-436.26732298 358.46144713 -436.26701443 359.61466672 -436.26669653 360.80283237 C-436.26496787 368.93931855 -436.26788837 377.07579552 -436.27259064 385.21228027 C-436.2781931 395.12454257 -436.2766964 405.03677318 -436.26602915 414.94903183 C-436.26076389 420.00881952 -436.25873022 425.06855434 -436.26532745 430.12834167 C-436.27127135 434.75696541 -436.26803764 439.38548707 -436.25737235 444.01410151 C-436.25513169 445.69168703 -436.25628946 447.36928112 -436.26112393 449.04686117 C-436.26717819 451.32158672 -436.26099524 453.59595956 -436.25168228 455.8706665 C-436.25135758 457.13584232 -436.25103287 458.40101814 -436.25069833 459.70453262 C-436.00163931 462.97845099 -435.61485746 465.14855934 -434 468 C-430.94523438 470.22537148 -428.18258753 470.25118828 -424.47736454 470.25447559 C-423.34734707 470.26030779 -422.2173296 470.26613998 -421.05306917 470.27214891 C-419.19049767 470.26647992 -419.19049767 470.26647992 -417.29029846 470.26069641 C-415.31198254 470.26643473 -415.31198254 470.26643473 -413.29370064 470.27228898 C-409.62965297 470.28259755 -405.96570284 470.28037992 -402.30164707 470.27610838 C-398.35133544 470.27364634 -394.40104761 470.28264881 -390.45074463 470.29014587 C-382.71052775 470.30290933 -374.97034553 470.30468453 -367.23011989 470.30234561 C-360.9402078 470.30056417 -354.65030626 470.30230834 -348.36039543 470.30657005 C-347.46593933 470.30716524 -346.57148322 470.30776043 -345.64992238 470.30837366 C-343.83296617 470.30958538 -342.01600996 470.31079951 -340.19905376 470.31201603 C-323.15138415 470.32289786 -306.10373431 470.320726 -289.05606358 470.31463119 C-273.45270919 470.30946112 -257.84941721 470.32071869 -242.24607516 470.33972941 C-226.23251274 470.35909068 -210.21897986 470.36736684 -194.20540565 470.36360615 C-185.21180699 470.36169155 -176.21826145 470.36420688 -167.22467232 470.37832069 C-159.56862382 470.39021367 -151.91266116 470.39166285 -144.25661153 470.37953053 C-140.34916934 470.37362722 -136.44188432 470.37258229 -132.53445244 470.38453293 C-128.9586155 470.39534248 -125.38306789 470.39234766 -121.80724477 470.37827124 C-119.89838221 470.37434859 -117.98950704 470.38521155 -116.08067423 470.39656812 C-114.94804901 470.38936158 -113.81542379 470.38215503 -112.6484766 470.37473011 C-111.67134616 470.37478513 -110.69421572 470.37484014 -109.68747526 470.37489682 C-106.49484164 469.92953153 -104.59709915 468.87921735 -102 467 C-100.59727856 463.8400874 -100.87678852 460.4324654 -100.87974548 457.01422119 C-100.87837082 455.7886702 -100.87699615 454.5631192 -100.87557983 453.3004303 C-100.87911872 451.94540381 -100.88275352 450.59037756 -100.88647461 449.23535156 C-100.88675673 447.80620831 -100.88659826 446.37706492 -100.8860321 444.94792175 C-100.8857451 441.07017042 -100.89162615 437.19245 -100.89860606 433.31470585 C-100.90485576 429.26146158 -100.90544468 425.20821661 -100.90663147 421.15496826 C-100.90974001 413.48045452 -100.91794699 405.80595502 -100.92798096 398.13144755 C-100.93915689 389.39391719 -100.94465628 380.65638615 -100.94967639 371.91885042 C-100.96012998 353.94589221 -100.97772022 335.97294725 -101 318 C-103.3461164 321.07551356 -105.33831789 324.18874216 -107.2578125 327.55078125 C-108.19028809 329.17777954 -108.19028809 329.17777954 -109.14160156 330.83764648 C-109.46584106 331.40587128 -109.79008057 331.97409607 -110.12414551 332.55953979 C-111.80259799 335.4992882 -113.49151092 338.43301594 -115.1796875 341.3671875 C-115.83420898 342.50510742 -116.48873047 343.64302734 -117.16308594 344.81542969 C-119.50197716 348.87025387 -121.85785241 352.91387259 -124.25 356.9375 C-124.91515625 358.06027344 -125.5803125 359.18304688 -126.265625 360.33984375 C-129.50088798 365.30203765 -132.99963615 367.09933415 -138.40234375 369.37109375 C-139.51485504 369.84930321 -139.51485504 369.84930321 -140.64984131 370.33717346 C-143.07598503 371.37798641 -145.50641863 372.40827829 -147.9375 373.4375 C-150.45964915 374.51133281 -152.98121097 375.58653689 -155.50276184 376.66177368 C-157.20285514 377.38636617 -158.90336833 378.10997425 -160.60429382 378.83261108 C-165.87124845 381.07441031 -171.10823604 383.37361919 -176.328125 385.72265625 C-177.59227301 386.28581328 -178.85667001 386.8484118 -180.12133789 387.41040039 C-182.43405185 388.44128152 -184.74097918 389.48528305 -187.04077148 390.54467773 C-193.41736988 393.35665067 -198.98697961 395.12465869 -206 394 C-209.72538021 392.05969781 -210.71621049 390.83977859 -212.05810547 386.86889648 C-213.05169182 382.78767231 -213.62929107 378.82879582 -214.0703125 374.66015625 C-214.19924393 373.50972084 -214.19924393 373.50972084 -214.33078003 372.33604431 C-214.60114142 369.91211299 -214.86320374 367.48736978 -215.125 365.0625 C-215.30804361 363.40814216 -215.49163209 361.75384452 -215.67578125 360.09960938 C-216.12348818 356.06707456 -216.56376006 352.03379075 -217 348 C-217.86029627 347.99853344 -218.72059254 347.99706688 -219.60695839 347.99555588 C-240.53892577 347.95850582 -261.470731 347.89951499 -282.40256691 347.81609726 C-292.52505383 347.77628626 -302.64746277 347.74390423 -312.77001953 347.72900391 C-321.59274653 347.71599808 -330.4153021 347.68906077 -339.23793256 347.64538693 C-343.90957388 347.62274806 -348.58100358 347.60709077 -353.25270462 347.60811615 C-357.65063667 347.60886133 -362.04810049 347.59096784 -366.44591141 347.55883217 C-368.05915186 347.55031944 -369.67244476 347.54859257 -371.28569794 347.55419731 C-373.49119277 347.56083848 -375.69519831 347.54291672 -377.90054321 347.51898193 C-379.75058173 347.51345118 -379.75058173 347.51345118 -381.63799477 347.50780869 C-385.65726424 346.90072458 -387.84713072 345.51932947 -391 343 C-392.97823694 339.04352612 -392.56487734 334.3017582 -392 330 C-389.47429367 326.58688333 -388.00086696 325.33362232 -384 324 C-381.80620883 323.89619052 -379.60937674 323.85352608 -377.41316223 323.84178162 C-376.74089637 323.83684364 -376.06863051 323.83190566 -375.37599295 323.82681805 C-373.11890992 323.81143582 -370.86185535 323.80308049 -368.60473633 323.79467773 C-366.98854827 323.78509978 -365.37236272 323.77508975 -363.75617981 323.76467896 C-359.36395159 323.73761489 -354.97171261 323.71661345 -350.57944703 323.69667697 C-345.99098891 323.67482669 -341.40256402 323.64743331 -336.81413269 323.62062073 C-328.12317239 323.57068088 -319.43219367 323.52574684 -310.74119729 323.48259836 C-300.84770274 323.43323703 -290.95424153 323.37831481 -281.06077921 323.32291877 C-260.70721719 323.20907889 -240.35362335 323.10224421 -220 323 C-220.01487017 322.03366261 -220.02974033 321.06732521 -220.04506111 320.07170486 C-220.0566268 318.80677578 -220.06819248 317.54184669 -220.08010864 316.23858643 C-220.09497881 314.98349903 -220.10984898 313.72841164 -220.12516975 312.43529129 C-219.96540797 308.05061959 -219.22015217 305.99238311 -216.9296875 302.296875 C-215.95515625 300.67265625 -215.95515625 300.67265625 -214.9609375 299.015625 C-214.27257812 297.93796875 -213.58421875 296.8603125 -212.875 295.75 C-212.20984375 294.656875 -211.5446875 293.56375 -210.859375 292.4375 C-208.9305911 289.27580717 -206.96886773 286.1368401 -205 283 C-203.82944964 281.11338497 -202.66479077 279.22309352 -201.5078125 277.328125 C-201.02199707 276.53825195 -200.53618164 275.74837891 -200.03564453 274.93457031 C-198.84267932 273.07185014 -198.84267932 273.07185014 -199 271 C-199.95398524 270.99761165 -200.90797049 270.99522329 -201.89086437 270.99276257 C-225.09235075 270.93399502 -248.29373305 270.85812923 -271.49510479 270.76428509 C-282.71507008 270.71929971 -293.93500343 270.67989136 -305.1550293 270.65356445 C-314.93322241 270.6306066 -324.71131469 270.59723335 -334.48942786 270.55129844 C-339.66793655 270.5273364 -344.84634518 270.50862715 -350.02490807 270.50238609 C-354.89798668 270.49634874 -359.7708092 270.47639777 -364.64379311 270.44572449 C-366.433226 270.4369226 -368.22269233 270.43322612 -370.012146 270.43499184 C-372.45421058 270.43664085 -374.895491 270.41997773 -377.33744812 270.39872742 C-378.40117638 270.40599878 -378.40117638 270.40599878 -379.48639411 270.41341704 C-383.82267286 270.35108498 -386.5584436 269.6661789 -390 267 C-392.15164703 263.77252945 -392.27245079 262.79494361 -392.25 259.0625 C-392.25773437 257.78052734 -392.25773437 257.78052734 -392.265625 256.47265625 C-391.96865792 253.70824209 -391.63750549 252.25392278 -390 250 C-385.24712709 247.0441381 -381.20283464 246.5895399 -375.73953247 246.68875122 C-374.51524373 246.69253951 -374.51524373 246.69253951 -373.26622188 246.69640434 C-370.53934051 246.70816501 -367.81313005 246.74121569 -365.08642578 246.77392578 C-363.12811129 246.78619554 -361.16978684 246.79695565 -359.2114563 246.80632019 C-354.99786842 246.82846544 -350.78444819 246.85887683 -346.57095718 246.89496231 C-339.90611165 246.94953999 -333.24142556 246.97067334 -326.5763855 246.98434448 C-324.29322238 246.98941249 -322.01005931 246.99450339 -319.72689629 246.99961662 C-318.01202133 247.00342044 -318.01202133 247.00342044 -316.26250243 247.00730109 C-300.74900146 247.04427046 -285.23612093 247.10852902 -269.72314453 247.24316406 C-259.25368988 247.33376209 -248.7851345 247.37822618 -238.31527698 247.37017238 C-232.77643531 247.36785711 -227.2399676 247.38950225 -221.70163345 247.46799088 C-216.49190087 247.5416027 -211.28550551 247.55477005 -206.07538986 247.52192116 C-204.16613054 247.5206705 -202.25670499 247.54162802 -200.34797668 247.58667183 C-190.87262115 248.18038563 -190.87262115 248.18038563 -182.45405746 244.71390891 C-179.48019238 241.19495413 -177.74283204 237.2516109 -176 233 C-175.26523202 231.69460431 -174.51000519 230.40006421 -173.71826172 229.12841797 C-173.12803223 228.09346191 -172.53780273 227.05850586 -171.9296875 225.9921875 C-171.6001004 225.41518097 -171.27051331 224.83817444 -170.93093872 224.24368286 C-170.24963799 223.04992594 -169.56935661 221.85558663 -168.89013672 220.66064453 C-167.87066605 218.8673765 -166.84770484 217.07613501 -165.82421875 215.28515625 C-162.79442796 209.97196654 -159.79988126 204.64521914 -156.87356567 199.27420044 C-156.33494463 198.28586275 -155.79632359 197.29752506 -155.24138069 196.27923775 C-154.62689725 195.15101506 -154.62689725 195.15101506 -154 194 C-155.77885479 193.99641747 -155.77885479 193.99641747 -157.59364605 193.99276257 C-185.73874357 193.93541419 -213.88377087 193.86269183 -242.02877779 193.77101372 C-245.49224798 193.75974543 -248.95571858 193.748607 -252.41918945 193.73754883 C-253.10870991 193.73534514 -253.79823037 193.73314146 -254.50864539 193.730871 C-265.67618028 193.69548969 -276.8437151 193.67063027 -288.01128527 193.64965298 C-299.46855363 193.62789754 -310.92573511 193.59462668 -322.38294488 193.55129844 C-328.81900611 193.52732482 -335.25498665 193.50862316 -341.69109154 193.50238609 C-347.74606471 193.496354 -353.80083132 193.47642203 -359.85572815 193.44572449 C-362.08055502 193.43691415 -364.30540884 193.43322784 -366.53025246 193.43499184 C-369.56343356 193.43663775 -372.59597987 193.42000331 -375.6290741 193.39872742 C-376.51331895 193.40357499 -377.39756379 193.40842257 -378.30860394 193.41341704 C-383.01675536 193.3587623 -386.20271964 193.09578169 -390 190 C-392.15164703 186.77252945 -392.27245079 185.79494361 -392.25 182.0625 C-392.25773437 180.78052734 -392.25773437 180.78052734 -392.265625 179.47265625 C-391.96865792 176.70824209 -391.63750549 175.25392278 -390 173 C-384.81323643 169.68714398 -380.49483502 169.57369177 -374.54919434 169.61904907 C-373.60500059 169.6143691 -372.66080684 169.60968913 -371.68800116 169.60486734 C-368.52818548 169.59291349 -365.36880318 169.60237627 -362.20898438 169.61181641 C-359.94199877 169.60775089 -357.67501515 169.60240912 -355.40803528 169.59588623 C-349.25317595 169.58220456 -343.09846741 169.58751489 -336.94360542 169.59702349 C-330.5041882 169.60461562 -324.06478394 169.59757571 -317.62536621 169.59286499 C-306.11845649 169.58705643 -294.6116239 169.59638291 -283.10472625 169.611643 C-272.67541502 169.62504593 -262.24620396 169.62271775 -251.81689453 169.60888672 C-239.70028156 169.59282552 -227.58374721 169.58685966 -215.4671216 169.59572351 C-209.05513891 169.60040204 -202.64322521 169.60101986 -196.23124695 169.59111404 C-190.20330113 169.58245211 -184.17554461 169.58845237 -178.14761925 169.60579681 C-175.93448387 169.60976576 -173.72133257 169.60862067 -171.50820351 169.60200882 C-168.48885534 169.59381958 -165.47011503 169.60408362 -162.45080566 169.61904907 C-161.57356637 169.61235691 -160.69632709 169.60566474 -159.79250479 169.59876978 C-154.78388597 169.64697145 -151.3428036 170.22758175 -147 173 C-145.125 175.1875 -145.125 175.1875 -144 177 C-135.89842721 163.31310761 -127.94888154 149.54009536 -120.01202393 135.75720215 C-117.25628938 130.97235217 -114.49865379 126.18859829 -111.74032593 121.40524292 C-110.77156009 119.72489647 -109.80337594 118.04421471 -108.83520508 116.36352539 C-108.24505615 115.3399292 -107.65490723 114.31633301 -107.046875 113.26171875 C-106.52963867 112.36412842 -106.01240234 111.46653809 -105.47949219 110.54174805 C-104 108 -104 108 -102.43080139 105.704422 C-100.78492035 102.59346829 -100.62549216 100.68681934 -100.62768555 97.1875 C-100.61834236 95.47046875 -100.61834236 95.47046875 -100.60881042 93.71875 C-100.61802017 92.4915625 -100.62722992 91.264375 -100.63671875 90 C-100.63622025 88.7315625 -100.63572174 87.463125 -100.63520813 86.15625 C-100.63754711 83.47625217 -100.64568089 80.79704734 -100.66381836 78.1171875 C-100.68650502 74.6907891 -100.68704735 71.26483176 -100.68030071 67.83837891 C-100.67614633 64.5588863 -100.68813981 61.27947128 -100.69921875 58 C-100.69785164 56.15921875 -100.69785164 56.15921875 -100.69645691 54.28125 C-100.70598892 53.1365625 -100.71552094 51.991875 -100.7253418 50.8125 C-100.73225288 49.30623047 -100.73225288 49.30623047 -100.73930359 47.76953125 C-101.02296112 44.75607053 -101.55049645 42.65921423 -103 40 C-106.18599535 37.92907736 -108.77377878 37.74956392 -112.52542877 37.74831772 C-113.65606294 37.74310222 -114.78669711 37.73788673 -115.95159292 37.73251319 C-117.19398938 37.73697463 -118.43638583 37.74143608 -119.71643066 37.74603271 C-121.69580494 37.74135274 -121.69580494 37.74135274 -123.71516657 37.73657823 C-127.38114951 37.72821302 -131.04702861 37.7323633 -134.71301198 37.73855066 C-138.66534591 37.7430671 -142.61766171 37.73609541 -146.56999207 37.73059082 C-154.31388771 37.72168653 -162.05774464 37.72362344 -169.80164182 37.7294161 C-176.09394548 37.73392851 -182.38623828 37.73454732 -188.67854309 37.73236847 C-189.57328792 37.732062 -190.46803275 37.73175554 -191.38989106 37.73143978 C-193.207413 37.73080035 -195.02493494 37.73015192 -196.84245688 37.7294946 C-213.89486723 37.72378827 -230.9472561 37.73035395 -247.99966294 37.74109533 C-262.63894621 37.75003112 -277.27819777 37.74847916 -291.91748047 37.73925781 C-308.90788658 37.72856053 -325.89827384 37.72433762 -342.88868284 37.73048234 C-344.69960753 37.73111945 -346.51053222 37.7317482 -348.32145691 37.73236847 C-349.21252173 37.73267702 -350.10358654 37.73298557 -351.02165332 37.73330347 C-357.30812605 37.73503204 -363.59458686 37.73211183 -369.88105774 37.72740936 C-377.53968368 37.72180654 -385.19826861 37.72330434 -392.85688984 37.73397085 C-396.76620054 37.73923565 -400.67544281 37.74127059 -404.58475304 37.73467255 C-408.81775168 37.72763611 -413.05057674 37.73602436 -417.28356934 37.74603271 C-418.52596579 37.74157127 -419.76836225 37.73710983 -421.04840708 37.73251319 C-422.74435833 37.74033643 -422.74435833 37.74033643 -424.47457123 37.74831772 C-425.45208139 37.74864242 -426.42959155 37.74896713 -427.43672323 37.74930167 C-430.20788612 38.02033206 -431.74868877 38.35955666 -434 40 Z M-44 53 C-44.60920288 54.06806885 -44.60920288 54.06806885 -45.23071289 55.15771484 C-54.49191534 71.39045455 -63.7907986 87.60059805 -73.14111328 103.78222656 C-76.26324605 109.18670645 -79.38141204 114.59347412 -82.5 120 C-83.74998122 122.1666775 -84.99998121 124.33334417 -86.25 126.5 C-86.86875 127.5725 -87.4875 128.645 -88.125 129.75 C-90 133 -91.875 136.25 -93.75 139.5 C-94.36883057 140.57266113 -94.98766113 141.64532227 -95.62524414 142.75048828 C-96.87435518 144.91557071 -98.12354129 147.08060982 -99.37280273 149.24560547 C-102.51202309 154.68615706 -105.64990563 160.12747216 -108.78515625 165.5703125 C-114.80747329 176.02206199 -120.84669337 186.46299548 -126.9375 196.875 C-132.01275123 205.55262241 -137.02258767 214.26605568 -142 223 C-147.53839512 232.71830971 -153.12917153 242.40404876 -158.77905273 252.05810547 C-163.07150264 259.39588691 -167.32292955 266.75655919 -171.5625 274.125 C-178.2849392 285.80367995 -185.11397834 297.4171238 -192 309 C-189.21161821 311.12226429 -186.43875302 312.98143018 -183.375 314.6875 C-182.59898437 315.12449219 -181.82296875 315.56148438 -181.0234375 316.01171875 C-179.07579745 317.14628929 -179.07579745 317.14628929 -177 317 C-176.62415771 316.34854004 -176.24831543 315.69708008 -175.86108398 315.02587891 C-154.99072266 278.85058594 -134.12036133 242.67529297 -113.25 206.5 C-112.63116943 205.42733887 -112.01233887 204.35467773 -111.37475586 203.24951172 C-110.12564482 201.08442929 -108.87645871 198.91939018 -107.62719727 196.75439453 C-104.48797691 191.31384294 -101.35009437 185.87252784 -98.21484375 180.4296875 C-92.19252671 169.97793801 -86.15330663 159.53700452 -80.0625 149.125 C-74.98724631 140.44737338 -69.97769668 131.73378487 -65 123 C-59.97558287 114.18601589 -54.92506959 105.38827948 -49.8125 96.625 C-49.25030762 95.66053955 -48.68811523 94.6960791 -48.10888672 93.70239258 C-45.18088539 88.69147722 -42.22583373 83.69831432 -39.23828125 78.72265625 C-38.63201904 77.70929199 -38.02575684 76.69592773 -37.40112305 75.65185547 C-36.24303365 73.71900028 -35.07938938 71.78945924 -33.90942383 69.86376953 C-33.39532959 69.00509277 -32.88123535 68.14641602 -32.3515625 67.26171875 C-31.89604004 66.50850342 -31.44051758 65.75528809 -30.97119141 64.97924805 C-29.77974372 62.91857426 -29.77974372 62.91857426 -30 60 C-32.61485148 58.06306255 -32.61485148 58.06306255 -35.875 56.3125 C-36.96554687 55.68988281 -38.05609375 55.06726563 -39.1796875 54.42578125 C-41.77077627 52.84961179 -41.77077627 52.84961179 -44 53 Z M-8 73 C-8.32049316 73.57105469 -8.64098633 74.14210938 -8.97119141 74.73046875 C-15.73332626 86.76692528 -22.57642234 98.74993062 -29.55517578 110.66210938 C-34.08916061 118.41187184 -38.55543006 126.19880102 -43 134 C-48.53968899 143.72134099 -54.13375063 153.40895092 -59.78344727 163.06689453 C-65.93766742 173.59084625 -72.02369996 184.15380137 -78.10888672 194.71777344 C-81.23680148 200.14659942 -84.36858448 205.57319281 -87.5 211 C-88.75001879 213.16665583 -90.00001878 215.3333225 -91.25 217.5 C-128.75 282.5 -128.75 282.5 -130.62866211 285.75561523 C-131.86730215 287.90307609 -133.1051076 290.05101857 -134.34204102 292.19946289 C-137.27832255 297.29715774 -140.22317418 302.38934229 -143.19747925 307.4649353 C-144.60806667 309.87323876 -146.01393561 312.2842803 -147.41943359 314.69555664 C-148.41824587 316.40455557 -149.4239023 318.1095486 -150.4296875 319.81445312 C-151.02910156 320.84376953 -151.62851562 321.87308594 -152.24609375 322.93359375 C-152.77904053 323.84165771 -153.3119873 324.74972168 -153.86108398 325.68530273 C-155.22074415 328.01868024 -155.22074415 328.01868024 -155 331 C-152.31377838 332.93339429 -152.31377838 332.93339429 -149 334.6875 C-147.88625 335.31011719 -146.7725 335.93273437 -145.625 336.57421875 C-144.75875 337.04472656 -143.8925 337.51523437 -143 338 C-140.16041369 335.33859868 -138.13148439 332.82741435 -136.2578125 329.421875 C-135.75660889 328.52122314 -135.25540527 327.62057129 -134.73901367 326.69262695 C-134.20638916 325.72156006 -133.67376465 324.75049316 -133.125 323.75 C-131.95852456 321.65411611 -130.79050775 319.55908947 -129.62109375 317.46484375 C-129.02151855 316.38960449 -128.42194336 315.31436523 -127.80419922 314.20654297 C-124.99117239 309.2070444 -122.09159417 304.25947993 -119.1875 299.3125 C-114.06701164 290.57425972 -109.01352937 281.79984806 -104 273 C-98.46031101 263.27865901 -92.86624937 253.59104908 -87.21655273 243.93310547 C-81.06233258 233.40915375 -74.97630004 222.84619863 -68.89111328 212.28222656 C-65.76319852 206.85340058 -62.63141552 201.42680719 -59.5 196 C-58.24998121 193.83334417 -56.99998122 191.6666775 -55.75 189.5 C-48.25 176.5 -40.75 163.5 -33.25 150.5 C-32.63108887 149.42717773 -32.01217773 148.35435547 -31.37451172 147.24902344 C-30.12628966 145.08552524 -28.87791761 142.92211357 -27.62939453 140.75878906 C-24.47594744 135.29434983 -21.32523904 129.82836355 -18.1796875 124.359375 C-17.54933594 123.26439697 -16.91898438 122.16941895 -16.26953125 121.04125977 C-15.01847698 118.86787541 -13.76845631 116.69389571 -12.51953125 114.51928711 C-9.44186648 109.17462166 -6.32627911 103.85843928 -3.1328125 98.58203125 C-2.52131348 97.5672168 -1.90981445 96.55240234 -1.27978516 95.50683594 C-0.11910765 93.58670279 1.05010972 91.67169821 2.22900391 89.76269531 C2.74124512 88.91416992 3.25348633 88.06564453 3.78125 87.19140625 C4.23564453 86.45092041 4.69003906 85.71043457 5.15820312 84.94750977 C6.3209342 82.85167641 6.3209342 82.85167641 5 80 C2.82422337 78.65061396 0.71387645 77.46148243 -1.5625 76.3125 C-2.17802734 75.99216797 -2.79355469 75.67183594 -3.42773438 75.34179688 C-4.9473555 74.55253629 -6.47311811 73.77512085 -8 73 Z " fill="#4BAF4F" transform="translate(460,13)"/>
<path d="M0 0 C0.9361755 -0.00467997 1.87235101 -0.00935994 2.83689547 -0.01418173 C5.96363408 -0.02611654 9.08993319 -0.01668028 12.2166748 -0.00723267 C14.46248123 -0.01129903 16.70828566 -0.01664127 18.9540863 -0.02316284 C25.04697262 -0.03683443 31.13970647 -0.03153834 37.23259544 -0.02202559 C43.61014592 -0.01442824 49.98768338 -0.02147481 56.36523438 -0.02618408 C67.76094001 -0.03199092 79.15656123 -0.02267022 90.55225259 -0.00740607 C100.87776491 0.00599659 111.20317603 0.00366833 121.52868652 -0.01016235 C133.52885253 -0.02622873 145.52894215 -0.03218666 157.52912283 -0.02332556 C163.87796553 -0.01864942 170.22673856 -0.01802266 176.57557678 -0.02793503 C182.54444375 -0.03660326 188.51311968 -0.03058516 194.48196602 -0.01325226 C196.67210638 -0.00928669 198.86226282 -0.01042265 201.05239677 -0.01704025 C204.04287909 -0.02524282 207.03274995 -0.01494932 210.02319336 0 C210.88905579 -0.00669217 211.75491822 -0.01338433 212.64701891 -0.02027929 C218.00680873 0.03165927 221.76559361 0.83132262 226.51159668 3.38095093 C228.98241528 6.51065449 230.22737915 9.4019055 230.51159668 13.38095093 C229.71368648 18.34572552 228.37428897 21.20752199 224.3856287 24.3486011 C220.75993989 26.34588779 216.95742512 26.0664461 212.90893555 26.01586914 C211.46814361 26.02756907 211.46814361 26.02756907 209.99824476 26.03950536 C206.78290304 26.05943302 203.56874385 26.04365718 200.35339355 26.02792358 C198.04699513 26.03469932 195.74060212 26.0436022 193.43421936 26.05447388 C187.17184003 26.07727858 180.90987231 26.06842568 174.64748573 26.05257845 C168.09595245 26.03992572 161.54445458 26.05165783 154.99291992 26.05950928 C143.28557509 26.07019023 131.57840351 26.05364548 119.87108868 26.02821259 C109.25979151 26.00587422 98.64876783 26.0097545 88.03747559 26.0328064 C75.70988401 26.05957429 63.38246679 26.06951865 51.0548501 26.05474508 C44.53104237 26.0469471 38.00742298 26.04591878 31.48362732 26.06242752 C25.3505012 26.07686335 19.21789194 26.06686589 13.0848217 26.03795624 C10.83299048 26.03134081 8.58111581 26.03325081 6.32930183 26.04426956 C3.25703188 26.0579178 0.18642177 26.0408166 -2.88574219 26.01586914 C-4.22494681 26.03259955 -4.22494681 26.03259955 -5.59120607 26.04966795 C-9.86363626 25.9822948 -12.63678119 25.70030911 -16.02606964 22.96626854 C-19.87825757 18.9216789 -19.78117093 16.26669834 -19.69543457 10.85751343 C-19.41737739 7.53131999 -18.78450268 5.82518573 -16.48840332 3.38095093 C-10.86248127 0.39880259 -6.30188703 -0.04870666 0 0 Z " fill="#4BAF4F" transform="translate(86.4884033203125,104.61904907226563)"/>
<path d="M0 0 C0.7613324 -0.0049649 1.52266479 -0.00992981 2.30706787 -0.01504517 C4.82671004 -0.02965436 7.34628923 -0.03646698 9.8659668 -0.04199219 C11.61850486 -0.047745 13.3710429 -0.05350272 15.12358093 -0.05926514 C18.79967543 -0.06977182 22.47574807 -0.07561655 26.15185547 -0.07910156 C30.85615419 -0.08458325 35.56016304 -0.10860564 40.26437092 -0.13707352 C43.88554215 -0.15572286 47.50664392 -0.16090674 51.12785912 -0.16243744 C52.86176321 -0.1654597 54.59566621 -0.17347384 56.32952309 -0.18662262 C58.75896701 -0.2037301 61.18770732 -0.20179154 63.6171875 -0.1953125 C64.68582283 -0.20913467 64.68582283 -0.20913467 65.77604675 -0.22323608 C71.23898862 -0.1777342 75.40592939 1.06437665 79.31518555 4.97363281 C81.53900603 9.07014424 81.6643226 12.22363789 80.87768555 16.78613281 C79.08357859 21.1898499 76.68757067 23.06869025 72.50268555 25.16113281 C69.97157111 25.27486811 67.46732136 25.32894414 64.93530273 25.33813477 C64.15460922 25.34470596 63.37391571 25.35127716 62.56956482 25.35804749 C59.97956246 25.37779729 57.38961817 25.38944764 54.79956055 25.39941406 C53.91524605 25.40348959 53.03093155 25.40756512 52.11981964 25.41176414 C47.43803642 25.43263344 42.75628258 25.44693064 38.07446289 25.45629883 C33.24113895 25.46735674 28.40827623 25.50174691 23.5751152 25.54147053 C19.85700634 25.56763363 16.13900733 25.57599045 12.42081451 25.57958031 C10.63944641 25.58444816 8.85808328 25.59606784 7.07680511 25.6146183 C4.58004909 25.63900058 2.08448545 25.63804658 -0.41235352 25.63110352 C-1.51139763 25.6503186 -1.51139763 25.6503186 -2.63264465 25.66992188 C-7.71227043 25.61857265 -10.57848186 24.34401905 -14.49731445 21.16113281 C-16.8168696 17.74248613 -17.02799048 14.53581407 -16.9543457 10.48535156 C-16.15819433 6.43654755 -13.63488242 3.72615188 -10.49731445 1.16113281 C-6.93869318 -0.02507428 -3.70380028 0.00576249 0 0 Z " fill="#4BAF4F" transform="translate(235.497314453125,412.8388671875)"/>
</svg>
