<svg width="26" height="26" viewBox="0 0 26 26" fill="none" xmlns="http://www.w3.org/2000/svg">
<path d="M3.25 11.9165H6.5C7.07464 11.9165 7.62574 12.1448 8.03206 12.5511C8.43839 12.9574 8.66667 13.5085 8.66667 14.0832V17.3332C8.66667 17.9078 8.43839 18.4589 8.03206 18.8652C7.62574 19.2716 7.07464 19.4998 6.5 19.4998H5.41667C4.84203 19.4998 4.29093 19.2716 3.8846 18.8652C3.47827 18.4589 3.25 17.9078 3.25 17.3332V11.9165ZM3.25 11.9165C3.25 10.6361 3.50219 9.36826 3.99217 8.18534C4.48216 7.00242 5.20034 5.92758 6.10571 5.02221C7.01108 4.11684 8.08591 3.39866 9.26884 2.90868C10.4518 2.4187 11.7196 2.1665 13 2.1665C14.2804 2.1665 15.5482 2.4187 16.7312 2.90868C17.9141 3.39866 18.9889 4.11684 19.8943 5.02221C20.7997 5.92758 21.5178 7.00242 22.0078 8.18534C22.4978 9.36826 22.75 10.6361 22.75 11.9165M22.75 11.9165V17.3332C22.75 17.9078 22.5217 18.4589 22.1154 18.8652C21.7091 19.2716 21.158 19.4998 20.5833 19.4998H19.5C18.9254 19.4998 18.3743 19.2716 17.9679 18.8652C17.5616 18.4589 17.3333 17.9078 17.3333 17.3332V14.0832C17.3333 13.5085 17.5616 12.9574 17.9679 12.5511C18.3743 12.1448 18.9254 11.9165 19.5 11.9165H22.75Z" stroke="#010163" stroke-width="2" stroke-linecap="round" stroke-linejoin="round"/>
<path d="M22.75 17.3335V19.5002C22.75 20.6494 22.2935 21.7516 21.4808 22.5643C20.6681 23.3769 19.5659 23.8335 18.4167 23.8335H13" stroke="#010163" stroke-width="2" stroke-linecap="round" stroke-linejoin="round"/>
</svg>
