<?xml version="1.0" encoding="UTF-8"?>
<svg version="1.1" xmlns="http://www.w3.org/2000/svg" width="512" height="512">
<path d="M0 0 C8.66464463 7.5616078 16.62612174 15.92527006 24.70703125 24.09765625 C28.2116282 22.60663292 30.38750492 20.61286634 33.015625 17.87890625 C33.83836914 17.03368408 34.66111328 16.18846191 35.50878906 15.31762695 C36.37858398 14.42003662 37.24837891 13.52244629 38.14453125 12.59765625 C61.94115432 -11.50804155 91.13441863 -27.73026603 125.703125 -28.14404297 C137.35102128 -28.17265774 148.41404746 -27.89359127 159.70703125 -24.90234375 C160.77195801 -24.62028076 160.77195801 -24.62028076 161.85839844 -24.33251953 C195.87279612 -14.91072625 222.57949175 8.27003809 240.15551758 38.45043945 C257.12984507 68.79622844 259.89874116 104.35870318 250.75756836 137.625 C244.11818315 160.4312772 232.837107 180.8288646 217.70703125 199.09765625 C217.25247559 199.6484082 216.79791992 200.19916016 216.32958984 200.76660156 C210.03920977 208.34095286 203.45819276 215.62316628 196.69042969 222.77294922 C193.82570694 225.80206894 191.01841499 228.86304178 188.28515625 232.01171875 C184.55139846 236.30774263 180.67727358 240.46004672 176.76953125 244.59765625 C176.10501953 245.30535156 175.44050781 246.01304687 174.75585938 246.7421875 C170.86803064 250.86758482 166.91901086 254.91071594 162.85717773 258.86523438 C160.99502634 260.79864102 159.24409853 262.77428227 157.4921875 264.80639648 C153.58199484 269.30292505 149.42887041 273.52004253 145.2109375 277.7265625 C144.02237404 278.91656105 144.02237404 278.91656105 142.80979919 280.13059998 C141.14452842 281.79654706 139.47801096 283.46124881 137.81030273 285.12475586 C135.27668503 287.65301759 132.74844958 290.18657286 130.22070312 292.72070312 C128.59276842 294.34797695 126.9645235 295.9749405 125.3359375 297.6015625 C124.58985733 298.3496669 123.84377716 299.0977713 123.0750885 299.86854553 C118.97530853 303.95031588 114.78780093 307.86487174 110.39476013 311.63011169 C108.22347126 313.51813008 106.20996693 315.53309178 104.20703125 317.59765625 C100.85446346 320.99034024 97.41227443 324.18866309 93.79296875 327.29296875 C91.45677624 329.31416901 89.17738274 331.39144464 86.89453125 333.47265625 C42.69936252 373.20164654 42.69936252 373.20164654 23.26171875 372.43359375 C-1.33374765 369.19932753 -26.18816577 341.69550276 -43.6171875 325.5546875 C-45.87254026 323.48371394 -48.15701741 321.46615001 -50.48046875 319.47265625 C-54.11529199 316.32699141 -57.47802556 312.95305923 -60.82421875 309.50390625 C-62.80530346 307.57297558 -64.8101942 305.77624882 -66.90795898 303.97827148 C-71.43151515 300.03178738 -75.68409697 295.85083828 -79.921875 291.6015625 C-80.71520737 290.80918686 -81.50853973 290.01681122 -82.32591248 289.20042419 C-83.99185956 287.53515342 -85.65656131 285.86863596 -87.32006836 284.20092773 C-89.84833009 281.66731003 -92.38188536 279.13907458 -94.91601562 276.61132812 C-96.54328945 274.98339342 -98.170253 273.3551485 -99.796875 271.7265625 C-100.9190316 270.60744225 -100.9190316 270.60744225 -102.06385803 269.4657135 C-106.12457147 265.38708334 -110.01985956 261.2236252 -113.76133728 256.84947205 C-116.13908759 254.12990103 -118.70557186 251.6158714 -121.29296875 249.09765625 C-125.22073584 245.27490967 -128.89050578 241.31360794 -132.4765625 237.16796875 C-135.4940005 233.72873834 -138.6468942 230.41887309 -141.79296875 227.09765625 C-146.17207549 222.47476419 -150.47208834 217.80601898 -154.64501953 212.99560547 C-156.14400359 211.26921997 -157.65862107 209.55847252 -159.1796875 207.8515625 C-188.78368046 174.3135881 -206.49590879 134.31714588 -204.29296875 89.09765625 C-202.0300006 63.06086611 -191.43977878 37.78351315 -174.29296875 18.09765625 C-173.56078125 17.25589844 -172.82859375 16.41414063 -172.07421875 15.546875 C-169.84581163 13.03228546 -167.57978855 10.55913547 -165.29296875 8.09765625 C-164.37451172 7.08058594 -164.37451172 7.08058594 -163.4375 6.04296875 C-120.90407936 -39.12045018 -46.12565779 -38.26779445 0 0 Z " fill="#0DB561" transform="translate(230.29296875,83.90234375)"/>
<path d="M0 0 C5.61571762 2.3451405 8.54492387 5.84552365 10.9609375 11.37109375 C11.58013824 14.72052817 11.54912704 17.94300082 11.44921875 21.33984375 C11.44214401 22.26075806 11.43506927 23.18167236 11.42778015 24.13049316 C11.4 27.04488606 11.33729441 29.95729086 11.2734375 32.87109375 C11.24833337 34.85804499 11.22552393 36.84502662 11.20507812 38.83203125 C11.1502273 43.6791405 11.06407079 48.52478118 10.9609375 53.37109375 C12.19658447 53.35014648 13.43223145 53.32919922 14.70532227 53.30761719 C19.3103466 53.23495922 23.91532072 53.18920035 28.52075195 53.15136719 C30.51009658 53.13131038 32.49938268 53.1040579 34.48852539 53.06933594 C37.35577881 53.02055604 40.22224961 52.99806548 43.08984375 52.98046875 C44.41369835 52.94950104 44.41369835 52.94950104 45.76429749 52.91790771 C51.69736579 52.91577463 55.09016824 53.937697 59.9609375 57.37109375 C63.26137223 60.92540807 64.22764358 63.63156248 64.3984375 68.37109375 C64.14335838 74.03385013 62.75724268 77.66933094 58.5859375 81.62109375 C52.92743201 85.39343074 48.34192433 85.64687294 41.72265625 85.56640625 C40.40150566 85.56216141 40.40150566 85.56216141 39.05366516 85.55783081 C36.25178205 85.54667208 33.45022334 85.52157546 30.6484375 85.49609375 C28.74414525 85.48605838 26.83984798 85.4769335 24.93554688 85.46875 C20.27721953 85.44674684 15.61913344 85.41224669 10.9609375 85.37109375 C10.97664795 86.58168457 10.9923584 87.79227539 11.00854492 89.03955078 C11.06298719 93.54583033 11.09733957 98.05208099 11.12573242 102.55859375 C11.14078649 104.50623469 11.1612343 106.45384191 11.18725586 108.40136719 C11.22378803 111.20646503 11.24069783 114.01111329 11.25390625 116.81640625 C11.26939011 117.68226349 11.28487396 118.54812073 11.30082703 119.44021606 C11.30242211 125.2153558 10.51025624 129.57613753 6.4609375 134.015625 C1.05372885 138.22592549 -3.31799927 139.19971798 -10.0390625 138.37109375 C-15.3425853 135.66929912 -19.13738548 132.0761248 -21.0390625 126.37109375 C-21.12473496 125.00517192 -21.15679897 123.63544517 -21.15258789 122.2668457 C-21.15251236 121.44622147 -21.15243683 120.62559723 -21.15235901 119.78010559 C-21.14719772 118.8987645 -21.14203644 118.0174234 -21.13671875 117.109375 C-21.1353038 116.203582 -21.13388885 115.297789 -21.13243103 114.36454773 C-21.12683251 111.47086284 -21.11428031 108.57725526 -21.1015625 105.68359375 C-21.09654731 103.72200633 -21.09198443 101.76041769 -21.08789062 99.79882812 C-21.07686357 94.98955354 -21.05959997 90.18033675 -21.0390625 85.37109375 C-22.84709351 85.40251465 -22.84709351 85.40251465 -24.69165039 85.43457031 C-29.18485527 85.50724205 -33.6780087 85.55299203 -38.17163086 85.59082031 C-40.11247508 85.61087403 -42.05325935 85.6381242 -43.99389648 85.67285156 C-46.79165482 85.7216455 -49.58861095 85.74412502 -52.38671875 85.76171875 C-53.67776268 85.79268646 -53.67776268 85.79268646 -54.99488831 85.82427979 C-60.86542775 85.8264419 -64.21348199 84.75553841 -69.0390625 81.37109375 C-73.62867007 76.41914874 -74.40241565 72.4403844 -74.31640625 65.875 C-73.7691464 60.93424559 -71.17202157 58.33155548 -67.51513672 55.23144531 C-62.87252061 52.74677508 -59.22476676 52.86294704 -54.046875 52.98046875 C-53.10093475 52.98612854 -52.15499451 52.99178833 -51.1803894 52.99761963 C-48.17442108 53.01991804 -45.16966739 53.07010237 -42.1640625 53.12109375 C-40.11980894 53.14116719 -38.07553661 53.15941648 -36.03125 53.17578125 C-31.03338985 53.21976147 -26.03643175 53.2887439 -21.0390625 53.37109375 C-21.06000977 52.13544678 -21.08095703 50.8997998 -21.10253906 49.62670898 C-21.17519703 45.02168465 -21.2209559 40.41671053 -21.25878906 35.8112793 C-21.27884587 33.82193467 -21.30609835 31.83264857 -21.34082031 29.84350586 C-21.38960021 26.97625244 -21.41209077 24.10978164 -21.4296875 21.2421875 C-21.45033264 20.35961777 -21.47097778 19.47704803 -21.49224854 18.56773376 C-21.49437972 12.63995762 -20.44957945 9.24769161 -17.0390625 4.37109375 C-12.03890527 -0.3197754 -6.69924635 -2.06624265 0 0 Z " fill="#FDFEFD" transform="translate(261.0390625,197.62890625)"/>
<path d="M0 0 C6.32287551 3.0108931 10.69172772 8.42006531 15.1875 13.6875 C18.44432635 17.48338726 21.94633369 20.98597499 25.5 24.5 C29.70699107 28.66462279 33.83569972 32.83668056 37.63671875 37.3828125 C39.11153337 39.17873208 39.11153337 39.17873208 41.375 41.375 C43.8807996 45.42283012 44.28027837 49.28557416 44 54 C42.78507225 58.89369501 40.39583322 62.08450008 36.3125 65 C32.02816451 67.35359212 27.78665673 68.19255193 23 67 C18.59310111 64.43566603 15.1286898 61.37312461 11.5625 57.75 C11.08441895 57.26547363 10.60633789 56.78094727 10.11376953 56.28173828 C6.85334331 52.95084016 3.76582545 49.50539347 0.7421875 45.9609375 C-1.96434835 42.91456756 -4.89283847 40.09888676 -7.79296875 37.23828125 C-10.48758392 34.50551223 -12.99360393 31.64160914 -15.4921875 28.73046875 C-17.23934072 26.72531622 -19.08170118 24.84156687 -21 23 C-19.48623919 19.43235715 -17.39486871 17.16293713 -14.6484375 14.453125 C-13.79765625 13.60878906 -12.946875 12.76445313 -12.0703125 11.89453125 C-11.18085938 11.02183594 -10.29140625 10.14914063 -9.375 9.25 C-8.4778125 8.36183594 -7.580625 7.47367187 -6.65625 6.55859375 C-4.44192996 4.36783031 -2.22307565 2.18187237 0 0 Z " fill="#1B5F3F" transform="translate(277,88)"/>
</svg>
