<svg width="26" height="26" viewBox="0 0 26 26" fill="none" xmlns="http://www.w3.org/2000/svg">
<path d="M2.16699 10.2918C2.16701 9.08622 2.53272 7.90905 3.2158 6.91572C3.89889 5.92239 4.86722 5.15963 5.9929 4.72818C7.11858 4.29674 8.34866 4.2169 9.52067 4.49922C10.6927 4.78153 11.7515 5.41272 12.5572 6.30942C12.614 6.3701 12.6826 6.41848 12.7588 6.45155C12.835 6.48463 12.9172 6.50169 13.0003 6.50169C13.0834 6.50169 13.1656 6.48463 13.2418 6.45155C13.318 6.41848 13.3867 6.3701 13.4434 6.30942C14.2466 5.40689 15.3057 4.7704 16.4796 4.48465C17.6535 4.19891 18.8866 4.27746 20.0148 4.70986C21.1429 5.14226 22.1127 5.90799 22.7949 6.90514C23.4771 7.9023 23.8394 9.08357 23.8337 10.2918C23.8337 12.7726 22.2087 14.6251 20.5837 16.2501L14.634 22.0058C14.4321 22.2377 14.1832 22.4239 13.9039 22.5522C13.6245 22.6804 13.321 22.7478 13.0136 22.7497C12.7062 22.7516 12.4019 22.6882 12.121 22.5635C11.84 22.4388 11.5888 22.2557 11.384 22.0264L5.41699 16.2501C3.79199 14.6251 2.16699 12.7834 2.16699 10.2918Z" stroke="#148614" stroke-width="2" stroke-linecap="round" stroke-linejoin="round"/>
</svg>
