<svg width="21" height="22" viewBox="0 0 21 22" fill="none" xmlns="http://www.w3.org/2000/svg">
<path d="M10.5 10.375C13.2614 10.375 15.5 8.13642 15.5 5.375C15.5 2.61358 13.2614 0.375 10.5 0.375C7.73858 0.375 5.5 2.61358 5.5 5.375C5.5 8.13642 7.73858 10.375 10.5 10.375Z" fill="#010163"/>
<path d="M20.5 21.625V16.625C20.5 15.875 20.125 15.125 19.5 14.625C18.125 13.5 16.375 12.75 14.625 12.25C13.375 11.875 12 11.625 10.5 11.625C9.125 11.625 7.75 11.875 6.375 12.25C4.625 12.75 2.875 13.625 1.5 14.625C0.875 15.125 0.5 15.875 0.5 16.625V21.625H20.5Z" fill="#010163"/>
</svg>
