<svg width="35" height="35" viewBox="0 0 35 35" fill="none" xmlns="http://www.w3.org/2000/svg">
<path d="M21.583 30.25V18.9167C21.583 18.5409 21.4338 18.1806 21.1681 17.9149C20.9024 17.6493 20.5421 17.5 20.1663 17.5H14.4997C14.124 17.5 13.7636 17.6493 13.4979 17.9149C13.2323 18.1806 13.083 18.5409 13.083 18.9167V30.25" stroke="white" stroke-width="2" stroke-linecap="round" stroke-linejoin="round"/>
<path d="M4.58301 14.6666C4.58291 14.2544 4.67273 13.8472 4.84621 13.4733C5.01968 13.0995 5.27264 12.768 5.58742 12.5019L15.5041 4.00333C16.0155 3.57112 16.6634 3.33398 17.333 3.33398C18.0026 3.33398 18.6505 3.57112 19.1619 4.00333L29.0786 12.5019C29.3934 12.768 29.6463 13.0995 29.8198 13.4733C29.9933 13.8472 30.0831 14.2544 30.083 14.6666V27.4166C30.083 28.168 29.7845 28.8887 29.2531 29.4201C28.7218 29.9514 28.0011 30.2499 27.2497 30.2499H7.41634C6.66489 30.2499 5.94422 29.9514 5.41287 29.4201C4.88152 28.8887 4.58301 28.168 4.58301 27.4166V14.6666Z" stroke="white" stroke-width="2" stroke-linecap="round" stroke-linejoin="round"/>
</svg>
