<svg width="26" height="26" viewBox="0 0 26 26" fill="none" xmlns="http://www.w3.org/2000/svg">
<path d="M12.9998 23.8334C18.9829 23.8334 23.8332 18.9832 23.8332 13.0001C23.8332 7.017 18.9829 2.16675 12.9998 2.16675C7.01675 2.16675 2.1665 7.017 2.1665 13.0001C2.1665 18.9832 7.01675 23.8334 12.9998 23.8334Z" stroke="#148614" stroke-width="2" stroke-linecap="round" stroke-linejoin="round"/>
<path d="M9.84766 9.74988C10.1024 9.02586 10.6051 8.41533 11.2668 8.02645C11.9285 7.63756 12.7065 7.4954 13.4629 7.62516C14.2194 7.75491 14.9055 8.1482 15.3998 8.73537C15.8941 9.32254 16.1646 10.0657 16.1635 10.8332C16.1635 12.9999 12.9135 14.0832 12.9135 14.0832" stroke="#148614" stroke-width="2" stroke-linecap="round" stroke-linejoin="round"/>
<path d="M13 18.4167H13.0142" stroke="#148614" stroke-width="2" stroke-linecap="round" stroke-linejoin="round"/>
</svg>
