<svg width="35" height="35" viewBox="0 0 35 35" fill="none" xmlns="http://www.w3.org/2000/svg">
<path d="M16.25 24.5833H20.5V27.4167C20.5 27.7924 20.6493 28.1527 20.9149 28.4184C21.1806 28.6841 21.5409 28.8333 21.9167 28.8333H24.75C25.1257 28.8333 25.4861 28.6841 25.7517 28.4184C26.0174 28.1527 26.1667 27.7924 26.1667 27.4167V23.1667C26.8266 22.947 27.4262 22.5765 27.918 22.0847C28.4098 21.5929 28.7803 20.9932 29 20.3333H30.4167C30.7924 20.3333 31.1527 20.1841 31.4184 19.9184C31.6841 19.6527 31.8333 19.2924 31.8333 18.9167V16.0833C31.8333 15.7076 31.6841 15.3473 31.4184 15.0816C31.1527 14.8159 30.7924 14.6667 30.4167 14.6667H29C29 13.567 28.744 12.4825 28.2522 11.4989C27.7604 10.5153 27.0464 9.65979 26.1667 9V4.75C25.2869 4.75 24.4193 4.95482 23.6325 5.34825C22.8456 5.74167 22.1612 6.31289 21.6333 7.01667L21.2083 7.58333H16.25C13.9957 7.58333 11.8337 8.47887 10.2396 10.0729C8.64553 11.667 7.75 13.829 7.75 16.0833V17.5C7.75 18.5997 8.00603 19.6842 8.49781 20.6678C8.98959 21.6513 9.70361 22.5069 10.5833 23.1667V27.4167C10.5833 27.7924 10.7326 28.1527 10.9983 28.4184C11.2639 28.6841 11.6243 28.8333 12 28.8333H14.8333C15.2091 28.8333 15.5694 28.6841 15.8351 28.4184C16.1007 28.1527 16.25 27.7924 16.25 27.4167V24.5833Z" stroke="white" stroke-width="2" stroke-linecap="round" stroke-linejoin="round"/>
<path d="M23.333 14.6667H23.343" stroke="white" stroke-width="2" stroke-linecap="round" stroke-linejoin="round"/>
<path d="M3.5 11.8333V13.2499C3.5 14.0014 3.79851 14.722 4.32986 15.2534C4.86122 15.7847 5.58189 16.0833 6.33333 16.0833H7.75" stroke="white" stroke-width="2" stroke-linecap="round" stroke-linejoin="round"/>
</svg>
