<svg width="26" height="26" viewBox="0 0 26 26" fill="none" xmlns="http://www.w3.org/2000/svg">
<path d="M17.3337 22.75V20.5833C17.3337 19.4341 16.8771 18.3319 16.0645 17.5192C15.2518 16.7065 14.1496 16.25 13.0003 16.25H6.50033C5.35105 16.25 4.24885 16.7065 3.4362 17.5192C2.62354 18.3319 2.16699 19.4341 2.16699 20.5833V22.75" stroke="#148614" stroke-width="2" stroke-linecap="round" stroke-linejoin="round"/>
<path d="M17.333 3.38867C18.2622 3.62957 19.0852 4.17221 19.6727 4.93141C20.2601 5.6906 20.5789 6.62338 20.5789 7.58334C20.5789 8.54329 20.2601 9.47607 19.6727 10.2353C19.0852 10.9945 18.2622 11.5371 17.333 11.778" stroke="#148614" stroke-width="2" stroke-linecap="round" stroke-linejoin="round"/>
<path d="M23.833 22.7498V20.5831C23.8323 19.623 23.5127 18.6903 22.9245 17.9315C22.3362 17.1726 21.5126 16.6307 20.583 16.3906" stroke="#148614" stroke-width="2" stroke-linecap="round" stroke-linejoin="round"/>
<path d="M9.75033 11.9167C12.1436 11.9167 14.0837 9.97657 14.0837 7.58333C14.0837 5.1901 12.1436 3.25 9.75033 3.25C7.35709 3.25 5.41699 5.1901 5.41699 7.58333C5.41699 9.97657 7.35709 11.9167 9.75033 11.9167Z" stroke="#148614" stroke-width="2" stroke-linecap="round" stroke-linejoin="round"/>
</svg>
